<?xml version="1.0" encoding="utf-8"?>
<svg version="1.1" xmlns="http://www.w3.org/2000/svg" xmlns:xlink="http://www.w3.org/1999/xlink" x="0px" y="0px" viewBox="0 0 256 256" style="enable-background:new 0 0 256 256;" xml:space="preserve">
<style type="text/css">
  @keyframes flicker {
    0% {opacity: 0.4;}
    5% {opacity: 0.5;}
    10% {opacity: 0.6;}
    15% {opacity: 0.85;}
    25% {opacity: 0.5;}
    30% {opacity: 1;}
    35% {opacity: 0.1;}
    40% {opacity: 0.25;}
    45% {opacity: 0.5;}
    60% {opacity: 1;}
    70% {opacity: 0.85;}
    80% {opacity: 0.4;}
    90% {opacity: 0.5;}
    100% {opacity: 1;}
  }
  @keyframes mercury {
    0% {transform: rotateZ(0deg);}
    100% {transform: rotateZ(-360deg);}
  }
  .st0{fill:#C83660;}
  .st1{opacity:0;}
  .st2{fill:#F6D365;}
  .st3{fill:#12191D;}
  .st4{fill:#FFFFFF;}
  #Logo{animation:flicker 2s linear reverse infinite;}
  #Fragments{animation:mercury 30s linear infinite;}
</style>

<g id="Fragments" transform-origin="center">
  <g>
    <path class="st0" d="M254.7,110c-8-56.6-53-101.3-109.7-108.9V110H254.7z"/>
    <path class="st1" d="M1.3,112H109V3.4C53.2,11.7,9.1,56,1.3,112z"/>
    <path class="st2" d="M145,254.9c56.8-7.5,101.8-52.3,109.7-108.9H145V254.9z"/>
    <path class="st0" d="M1.3,146C9.1,202,53.2,246.3,109,254.6V146H1.3z"/>
  </g>
  <g id="Circle" transform="scale(0.25) translate(140,140)">
    <path id="Pulse" class="st3" d="M35.4,58h0.1c12.1,0,21.9-9.8,21.9-21.9v-0.1c0-19.4-23.6-29.4-37.3-15.7c-0.2,0.2-0.4,0.4-0.6,0.6C6,34.7,16,58,35.4,58z"/>
  </g>
</g>
<g id="Base">
  <circle class="st3" cx="128.5" cy="128.5" r="98.5"/>
</g>
<g id="Logo">
  <polygon class="st4" points="150,167 105.7,167 93,154.3 162.5,154.3"/>
  <polygon class="st4" points="112,141.7 93,141.7 137.3,89.3 156.2,89.3"/>
  <polygon class="st4" points="137.3,89.3 162.5,154.3 150,167 126.9,101.6"/>
</g>
</svg>
